<svg width="25" height="24" viewBox="0 0 25 24" fill="none" xmlns="http://www.w3.org/2000/svg">
<path d="M3.39798 15.4643L4.09435 15.2429L3.39798 15.4643ZM2.33932 9.45481L3.04321 9.65099L2.33932 9.45481ZM6.76003 4.8893L6.32442 4.30263H6.32441L6.76003 4.8893ZM2.44732 9.11512L3.13526 9.36146L2.44732 9.11512ZM6.28049 21.172L5.86683 21.7743H5.86683L6.28049 21.172ZM5.99775 20.962L5.5408 21.5322L5.99775 20.962ZM21.0019 15.4643L20.3056 15.2429L21.0019 15.4643ZM18.4022 20.962L18.8591 21.5322L18.4022 20.962ZM18.1194 21.172L18.5331 21.7743L18.1194 21.172ZM17.6399 4.8893L18.0755 4.30263L17.6399 4.8893ZM21.9526 9.11512L21.2646 9.36146L21.9526 9.11512ZM22.0606 9.45481L21.3567 9.65099L22.0606 9.45481ZM12.3747 2.00327L12.3473 2.73348L12.3747 2.00327ZM12.0252 2.00327L12.0526 2.73348L12.0252 2.00327ZM10.2933 16.6822C9.88977 16.6822 9.56261 17.0093 9.56261 17.4129C9.56261 17.8164 9.88977 18.1436 10.2933 18.1436V17.4129V16.6822ZM14.1066 18.1436C14.5101 18.1436 14.8373 17.8164 14.8373 17.4129C14.8373 17.0093 14.5101 16.6822 14.1066 16.6822V17.4129V18.1436ZM3.39798 15.4643L4.09435 15.2429C3.6041 13.7009 3.25456 12.5983 3.07111 11.7029C2.89101 10.8239 2.88677 10.2123 3.04321 9.65099L2.33932 9.45481L1.63544 9.25863C1.39392 10.1252 1.43348 10.9911 1.63942 11.9963C1.84202 12.9851 2.22079 14.1733 2.70161 15.6857L3.39798 15.4643ZM6.76003 4.8893L6.32441 4.30263C5.06602 5.23703 4.0749 5.97171 3.34111 6.65108C2.59428 7.34252 2.06281 8.02142 1.75938 8.86878L2.44732 9.11512L3.13526 9.36146C3.33108 8.8146 3.68482 8.32446 4.33396 7.72347C4.99613 7.11042 5.91174 6.42931 7.19565 5.47597L6.76003 4.8893ZM2.33932 9.45481L3.04321 9.65099C3.07043 9.55334 3.10113 9.45677 3.13526 9.36146L2.44732 9.11512L1.75938 8.86878C1.71341 8.99716 1.67207 9.1272 1.63544 9.25863L2.33932 9.45481ZM12.2 22V21.2693C10.6125 21.2693 9.48121 21.2683 8.59425 21.1702C7.7252 21.0741 7.16196 20.8909 6.69415 20.5696L6.28049 21.172L5.86683 21.7743C6.60479 22.2811 7.43005 22.5118 8.43367 22.6228C9.41938 22.7317 10.6449 22.7307 12.2 22.7307V22ZM3.39798 15.4643L2.70161 15.6857C3.1824 17.198 3.5594 18.3869 3.9643 19.3089C4.37572 20.2456 4.84291 20.973 5.5408 21.5322L5.99775 20.962L6.4547 20.3918C6.00944 20.035 5.66227 19.5407 5.30236 18.7212C4.93594 17.8869 4.58463 16.785 4.09435 15.2429L3.39798 15.4643ZM6.28049 21.172L6.69415 20.5696C6.61226 20.5134 6.53239 20.4541 6.4547 20.3918L5.99775 20.962L5.5408 21.5322C5.64651 21.6169 5.75526 21.6977 5.86683 21.7743L6.28049 21.172ZM21.0019 15.4643L20.3056 15.2429C19.8153 16.785 19.464 17.8869 19.0975 18.7212C18.7376 19.5407 18.3905 20.035 17.9452 20.3918L18.4022 20.962L18.8591 21.5322C19.557 20.973 20.0242 20.2456 20.4356 19.3089C20.8405 18.3869 21.2175 17.198 21.6983 15.6857L21.0019 15.4643ZM12.2 22V22.7307C13.755 22.7307 14.9805 22.7317 15.9662 22.6228C16.9699 22.5118 17.7951 22.2811 18.5331 21.7743L18.1194 21.172L17.7058 20.5696C17.2379 20.8909 16.6747 21.0741 15.8057 21.1702C14.9187 21.2683 13.7874 21.2693 12.2 21.2693V22ZM18.4022 20.962L17.9452 20.3918C17.8675 20.4541 17.7876 20.5134 17.7058 20.5696L18.1194 21.172L18.5331 21.7743C18.6446 21.6977 18.7534 21.6169 18.8591 21.5322L18.4022 20.962ZM17.6399 4.8893L17.2043 5.47597C18.4882 6.42931 19.4038 7.11042 20.0659 7.72347C20.7151 8.32446 21.0688 8.8146 21.2646 9.36146L21.9526 9.11512L22.6405 8.86878C22.3371 8.02142 21.8056 7.34252 21.0588 6.65108C20.325 5.97171 19.3339 5.23703 18.0755 4.30263L17.6399 4.8893ZM21.0019 15.4643L21.6983 15.6857C22.1791 14.1733 22.5579 12.9851 22.7605 11.9963C22.9664 10.9911 23.006 10.1252 22.7645 9.25863L22.0606 9.45481L21.3567 9.65099C21.5131 10.2123 21.5089 10.8239 21.3288 11.7029C21.1453 12.5983 20.7958 13.7009 20.3056 15.2429L21.0019 15.4643ZM21.9526 9.11512L21.2646 9.36146C21.2988 9.45676 21.3295 9.55334 21.3567 9.65099L22.0606 9.45481L22.7645 9.25863C22.7278 9.1272 22.6865 8.99716 22.6405 8.86878L21.9526 9.11512ZM17.6399 4.8893L18.0755 4.30263C16.8172 3.36835 15.8271 2.63187 14.9677 2.12834C14.0937 1.6162 13.2931 1.30648 12.4021 1.27307L12.3747 2.00327L12.3473 2.73348C12.908 2.7545 13.4689 2.94392 14.2289 3.38926C15.0036 3.8432 15.9202 4.52252 17.2043 5.47597L17.6399 4.8893ZM6.76003 4.8893L7.19565 5.47597C8.47971 4.52252 9.39628 3.8432 10.171 3.38926C10.931 2.94392 11.4919 2.7545 12.0526 2.73348L12.0252 2.00327L11.9978 1.27307C11.1068 1.30648 10.3062 1.6162 9.43218 2.12834C8.57282 2.63187 7.58266 3.36835 6.32442 4.30263L6.76003 4.8893ZM12.3747 2.00327L12.4021 1.27307C12.2674 1.26802 12.1325 1.26802 11.9978 1.27307L12.0252 2.00327L12.0526 2.73348C12.1508 2.72979 12.2491 2.72979 12.3473 2.73348L12.3747 2.00327ZM10.2933 17.4129V18.1436H14.1066V17.4129V16.6822H10.2933V17.4129Z" fill="#BABABA"/>
</svg>
