<svg width="21" height="21" viewBox="0 0 21 21" fill="none" xmlns="http://www.w3.org/2000/svg">
<path d="M3.01085 10.5C4.02712 9.73773 5.28423 9.36766 6.55138 9.45772C7.81853 9.54778 9.01067 10.0919 9.90893 10.9903C10.8072 11.8886 11.3513 13.0808 11.4414 14.3481C11.5314 15.6153 11.1614 16.8725 10.3992 17.8889M3.01085 10.5C2.35542 10.9916 1.82345 11.6291 1.45705 12.3619C1.09065 13.0948 0.899903 13.9029 0.899903 14.7222C0.899565 15.2529 0.97927 15.7807 1.13633 16.2876C1.42342 17.2165 1.21655 18.2509 1.03184 19.2263C1.01546 19.3096 1.02086 19.3958 1.04751 19.4765C1.07416 19.5572 1.12116 19.6296 1.18398 19.6868C1.2468 19.744 1.3233 19.784 1.40611 19.803C1.48891 19.822 1.57522 19.8193 1.65668 19.7952C2.55172 19.5503 3.44148 19.3413 4.35552 19.677C4.93902 19.8911 5.55574 20.0005 6.17727 20C6.9967 20.0008 7.80502 19.8104 8.53794 19.4439C9.27086 19.0774 9.90816 18.545 10.3992 17.8889M3.01085 10.5C3.01085 5.55472 6.04534 1 11.4546 1C12.8088 0.999764 14.1431 1.32523 15.345 1.94894C16.547 2.57265 17.5813 3.47632 18.3608 4.5837C19.1402 5.69108 19.6419 6.9697 19.8236 8.31169C20.0052 9.65368 19.8615 11.0197 19.4045 12.2944C18.9021 13.6941 19.4435 15.5688 19.7602 17.1162C19.7786 17.1986 19.7748 17.2844 19.7492 17.3649C19.7235 17.4453 19.677 17.5175 19.6142 17.574C19.5515 17.6305 19.4749 17.6693 19.3922 17.6864C19.3095 17.7036 19.2238 17.6984 19.1438 17.6714C17.759 17.2387 16.1336 16.6307 14.8322 17.1796C13.4242 17.7728 11.9444 17.8889 10.3992 17.8889" stroke="#BABABA" stroke-width="1.5" stroke-linecap="round" stroke-linejoin="round"/>
</svg>
