<svg width="25" height="24" viewBox="0 0 25 24" fill="none" xmlns="http://www.w3.org/2000/svg">
<path d="M16.8 9H16.05C16.05 10.7949 14.595 12.25 12.8 12.25V13V13.75C15.4234 13.75 17.55 11.6234 17.55 9H16.8ZM12.8 13V12.25C11.0051 12.25 9.55005 10.7949 9.55005 9H8.80005H8.05005C8.05005 11.6234 10.1767 13.75 12.8 13.75V13ZM8.80005 9H9.55005C9.55005 7.20507 11.0051 5.75 12.8 5.75V5V4.25C10.1767 4.25 8.05005 6.37665 8.05005 9H8.80005ZM12.8 5V5.75C14.595 5.75 16.05 7.20507 16.05 9H16.8H17.55C17.55 6.37665 15.4234 4.25 12.8 4.25V5ZM9.80005 16V16.75H15.8V16V15.25H9.80005V16ZM2.80005 12H3.55005C3.55005 6.89137 7.69141 2.75 12.8 2.75V2V1.25C6.86299 1.25 2.05005 6.06294 2.05005 12H2.80005ZM12.8 2V2.75C17.9087 2.75 22.05 6.89137 22.05 12H22.8H23.55C23.55 6.06294 18.7371 1.25 12.8 1.25V2ZM22.8 12H22.05C22.05 14.6233 20.959 16.9905 19.2039 18.6748L19.7232 19.2159L20.2425 19.7571C22.2802 17.8016 23.55 15.0485 23.55 12H22.8ZM19.7232 19.2159L19.2039 18.6748C17.5412 20.2705 15.2858 21.25 12.8 21.25V22V22.75C15.6882 22.75 18.3117 21.61 20.2425 19.7571L19.7232 19.2159ZM15.8 16V16.75C17.3761 16.75 18.6916 17.8726 18.9876 19.3621L19.7232 19.2159L20.4588 19.0697C20.026 16.8918 18.1056 15.25 15.8 15.25V16ZM12.8 22V21.25C10.3143 21.25 8.05889 20.2705 6.39617 18.6748L5.87686 19.2159L5.35755 19.7571C7.28837 21.61 9.91187 22.75 12.8 22.75V22ZM5.87686 19.2159L6.39617 18.6748C4.64108 16.9905 3.55005 14.6233 3.55005 12H2.80005H2.05005C2.05005 15.0485 3.31994 17.8016 5.35755 19.7571L5.87686 19.2159ZM9.80005 16V15.25C7.4945 15.25 5.57408 16.8918 5.14125 19.0697L5.87686 19.2159L6.61248 19.3621C6.90851 17.8726 8.22401 16.75 9.80005 16.75V16Z" fill="#BABABA"/>
</svg>
